{
	"patcher" : 	{
		"fileversion" : 1,
		"appversion" : 		{
			"major" : 7,
			"minor" : 3,
			"revision" : 4,
			"architecture" : "x64",
			"modernui" : 1
		}
,
		"rect" : [ 67.0, 132.0, 640.0, 480.0 ],
		"bglocked" : 0,
		"openinpresentation" : 0,
		"default_fontsize" : 12.0,
		"default_fontface" : 0,
		"default_fontname" : "Arial",
		"gridonopen" : 1,
		"gridsize" : [ 15.0, 15.0 ],
		"gridsnaponopen" : 1,
		"objectsnaponopen" : 1,
		"statusbarvisible" : 2,
		"toolbarvisible" : 1,
		"lefttoolbarpinned" : 0,
		"toptoolbarpinned" : 0,
		"righttoolbarpinned" : 0,
		"bottomtoolbarpinned" : 0,
		"toolbars_unpinned_last_save" : 0,
		"tallnewobj" : 0,
		"boxanimatetime" : 200,
		"enablehscroll" : 1,
		"enablevscroll" : 1,
		"devicewidth" : 0.0,
		"description" : "",
		"digest" : "",
		"tags" : "",
		"style" : "",
		"subpatcher_template" : "",
		"boxes" : [ 			{
				"box" : 				{
					"id" : "obj-6",
					"maxclass" : "newobj",
					"numinlets" : 1,
					"numoutlets" : 0,
					"patching_rect" : [ 259.0, 362.0, 34.0, 22.0 ],
					"style" : "",
					"text" : "print"
				}

			}
, 			{
				"box" : 				{
					"id" : "obj-3",
					"maxclass" : "newobj",
					"numinlets" : 1,
					"numoutlets" : 2,
					"outlettype" : [ "jit_matrix", "" ],
					"patching_rect" : [ 112.25, 386.0, 117.0, 22.0 ],
					"style" : "",
					"text" : "jit.matrix customITD"
				}

			}
, 			{
				"box" : 				{
					"id" : "obj-4",
					"maxclass" : "newobj",
					"numinlets" : 2,
					"numoutlets" : 1,
					"outlettype" : [ "int" ],
					"patching_rect" : [ 153.75, 121.0, 34.0, 22.0 ],
					"style" : "",
					"text" : "+ 36"
				}

			}
, 			{
				"box" : 				{
					"id" : "obj-617",
					"maxclass" : "newobj",
					"numinlets" : 2,
					"numoutlets" : 1,
					"outlettype" : [ "int" ],
					"patching_rect" : [ 102.0, 243.5, 29.5, 22.0 ],
					"style" : "",
					"text" : "+"
				}

			}
, 			{
				"box" : 				{
					"id" : "obj-601",
					"maxclass" : "newobj",
					"numinlets" : 2,
					"numoutlets" : 1,
					"outlettype" : [ "float" ],
					"patching_rect" : [ 179.25, 286.5, 31.0, 22.0 ],
					"style" : "",
					"text" : "+ 0."
				}

			}
, 			{
				"box" : 				{
					"id" : "obj-548",
					"maxclass" : "newobj",
					"numinlets" : 2,
					"numoutlets" : 1,
					"outlettype" : [ "" ],
					"patching_rect" : [ 112.25, 329.5, 49.0, 22.0 ],
					"style" : "",
					"text" : "pack i f"
				}

			}
, 			{
				"box" : 				{
					"id" : "obj-547",
					"maxclass" : "message",
					"numinlets" : 2,
					"numoutlets" : 1,
					"outlettype" : [ "" ],
					"patching_rect" : [ 112.25, 357.5, 117.0, 22.0 ],
					"style" : "",
					"text" : "setcell 0 $1 0 val $2"
				}

			}
, 			{
				"box" : 				{
					"id" : "obj-545",
					"maxclass" : "newobj",
					"numinlets" : 2,
					"numoutlets" : 1,
					"outlettype" : [ "float" ],
					"patching_rect" : [ 153.75, 259.5, 34.0, 22.0 ],
					"style" : "",
					"text" : "/ 36."
				}

			}
, 			{
				"box" : 				{
					"id" : "obj-544",
					"maxclass" : "newobj",
					"numinlets" : 2,
					"numoutlets" : 1,
					"outlettype" : [ "float" ],
					"patching_rect" : [ 143.25, 286.5, 29.5, 22.0 ],
					"style" : "",
					"text" : "* 0."
				}

			}
, 			{
				"box" : 				{
					"id" : "obj-539",
					"maxclass" : "message",
					"numinlets" : 2,
					"numoutlets" : 1,
					"outlettype" : [ "" ],
					"patching_rect" : [ 102.0, 148.0, 29.5, 22.0 ],
					"style" : "",
					"text" : "35"
				}

			}
, 			{
				"box" : 				{
					"id" : "obj-537",
					"maxclass" : "newobj",
					"numinlets" : 2,
					"numoutlets" : 3,
					"outlettype" : [ "bang", "bang", "int" ],
					"patching_rect" : [ 102.0, 174.5, 40.0, 22.0 ],
					"style" : "",
					"text" : "uzi"
				}

			}
, 			{
				"box" : 				{
					"id" : "obj-536",
					"maxclass" : "message",
					"numinlets" : 2,
					"numoutlets" : 1,
					"outlettype" : [ "" ],
					"patching_rect" : [ 153.75, 202.0, 29.5, 22.0 ],
					"style" : "",
					"text" : "$6"
				}

			}
, 			{
				"box" : 				{
					"id" : "obj-535",
					"maxclass" : "message",
					"numinlets" : 2,
					"numoutlets" : 1,
					"outlettype" : [ "" ],
					"patching_rect" : [ 278.75, 202.0, 29.5, 22.0 ],
					"style" : "",
					"text" : "$6"
				}

			}
, 			{
				"box" : 				{
					"id" : "obj-533",
					"maxclass" : "newobj",
					"numinlets" : 2,
					"numoutlets" : 1,
					"outlettype" : [ "float" ],
					"patching_rect" : [ 153.75, 231.5, 29.5, 22.0 ],
					"style" : "",
					"text" : "- 0."
				}

			}
, 			{
				"box" : 				{
					"id" : "obj-532",
					"maxclass" : "newobj",
					"numinlets" : 1,
					"numoutlets" : 2,
					"outlettype" : [ "jit_matrix", "" ],
					"patching_rect" : [ 153.75, 174.5, 117.0, 22.0 ],
					"style" : "",
					"text" : "jit.matrix customITD"
				}

			}
, 			{
				"box" : 				{
					"id" : "obj-531",
					"maxclass" : "message",
					"numinlets" : 2,
					"numoutlets" : 1,
					"outlettype" : [ "" ],
					"patching_rect" : [ 153.75, 148.0, 82.0, 22.0 ],
					"style" : "",
					"text" : "getcell 0 $1 0"
				}

			}
, 			{
				"box" : 				{
					"id" : "obj-529",
					"maxclass" : "newobj",
					"numinlets" : 1,
					"numoutlets" : 2,
					"outlettype" : [ "jit_matrix", "" ],
					"patching_rect" : [ 278.75, 174.5, 117.0, 22.0 ],
					"style" : "",
					"text" : "jit.matrix customITD"
				}

			}
, 			{
				"box" : 				{
					"id" : "obj-528",
					"maxclass" : "message",
					"numinlets" : 2,
					"numoutlets" : 1,
					"outlettype" : [ "" ],
					"patching_rect" : [ 278.75, 148.0, 82.0, 22.0 ],
					"style" : "",
					"text" : "getcell 0 $1 0"
				}

			}
, 			{
				"box" : 				{
					"comment" : "",
					"id" : "obj-2",
					"index" : 2,
					"maxclass" : "inlet",
					"numinlets" : 0,
					"numoutlets" : 1,
					"outlettype" : [ "" ],
					"patching_rect" : [ 205.75, 71.0, 30.0, 30.0 ],
					"style" : ""
				}

			}
, 			{
				"box" : 				{
					"comment" : "",
					"id" : "obj-1",
					"index" : 1,
					"maxclass" : "inlet",
					"numinlets" : 0,
					"numoutlets" : 1,
					"outlettype" : [ "" ],
					"patching_rect" : [ 112.25, 71.0, 30.0, 30.0 ],
					"style" : ""
				}

			}
 ],
		"lines" : [ 			{
				"patchline" : 				{
					"destination" : [ "obj-4", 0 ],
					"order" : 1,
					"source" : [ "obj-1", 0 ]
				}

			}
, 			{
				"patchline" : 				{
					"destination" : [ "obj-528", 0 ],
					"order" : 0,
					"source" : [ "obj-1", 0 ]
				}

			}
, 			{
				"patchline" : 				{
					"destination" : [ "obj-539", 0 ],
					"order" : 2,
					"source" : [ "obj-1", 0 ]
				}

			}
, 			{
				"patchline" : 				{
					"destination" : [ "obj-617", 1 ],
					"source" : [ "obj-2", 0 ]
				}

			}
, 			{
				"patchline" : 				{
					"destination" : [ "obj-531", 0 ],
					"source" : [ "obj-4", 0 ]
				}

			}
, 			{
				"patchline" : 				{
					"destination" : [ "obj-529", 0 ],
					"source" : [ "obj-528", 0 ]
				}

			}
, 			{
				"patchline" : 				{
					"destination" : [ "obj-535", 0 ],
					"source" : [ "obj-529", 1 ]
				}

			}
, 			{
				"patchline" : 				{
					"destination" : [ "obj-532", 0 ],
					"source" : [ "obj-531", 0 ]
				}

			}
, 			{
				"patchline" : 				{
					"destination" : [ "obj-536", 0 ],
					"source" : [ "obj-532", 1 ]
				}

			}
, 			{
				"patchline" : 				{
					"destination" : [ "obj-545", 0 ],
					"source" : [ "obj-533", 0 ]
				}

			}
, 			{
				"patchline" : 				{
					"destination" : [ "obj-533", 1 ],
					"order" : 1,
					"source" : [ "obj-535", 0 ]
				}

			}
, 			{
				"patchline" : 				{
					"destination" : [ "obj-601", 1 ],
					"order" : 0,
					"source" : [ "obj-535", 0 ]
				}

			}
, 			{
				"patchline" : 				{
					"destination" : [ "obj-533", 0 ],
					"source" : [ "obj-536", 0 ]
				}

			}
, 			{
				"patchline" : 				{
					"destination" : [ "obj-544", 0 ],
					"order" : 0,
					"source" : [ "obj-537", 2 ]
				}

			}
, 			{
				"patchline" : 				{
					"destination" : [ "obj-617", 0 ],
					"order" : 1,
					"source" : [ "obj-537", 2 ]
				}

			}
, 			{
				"patchline" : 				{
					"destination" : [ "obj-537", 0 ],
					"source" : [ "obj-539", 0 ]
				}

			}
, 			{
				"patchline" : 				{
					"destination" : [ "obj-601", 0 ],
					"source" : [ "obj-544", 0 ]
				}

			}
, 			{
				"patchline" : 				{
					"destination" : [ "obj-544", 1 ],
					"source" : [ "obj-545", 0 ]
				}

			}
, 			{
				"patchline" : 				{
					"destination" : [ "obj-3", 0 ],
					"order" : 1,
					"source" : [ "obj-547", 0 ]
				}

			}
, 			{
				"patchline" : 				{
					"destination" : [ "obj-6", 0 ],
					"order" : 0,
					"source" : [ "obj-547", 0 ]
				}

			}
, 			{
				"patchline" : 				{
					"destination" : [ "obj-547", 0 ],
					"source" : [ "obj-548", 0 ]
				}

			}
, 			{
				"patchline" : 				{
					"destination" : [ "obj-548", 1 ],
					"source" : [ "obj-601", 0 ]
				}

			}
, 			{
				"patchline" : 				{
					"destination" : [ "obj-548", 0 ],
					"source" : [ "obj-617", 0 ]
				}

			}
 ]
	}

}
